<?xml version="1.0" encoding="UTF-8"?>
<svg version="1.1" xmlns="http://www.w3.org/2000/svg" width="1000" height="1000">
<path d="M0 0 C1.8057681 -0.00302545 3.61153492 -0.0069169 5.41729951 -0.01159257 C10.34901919 -0.02183062 15.28066582 -0.01970148 20.21239138 -0.01541197 C25.54315242 -0.01293709 30.87389622 -0.02196839 36.20465088 -0.02944946 C46.63675132 -0.04217757 57.068826 -0.04399249 67.5009329 -0.0416492 C75.98398514 -0.03986368 84.46702957 -0.0416207 92.95008087 -0.04587364 C94.76348872 -0.04676643 94.76348872 -0.04676643 96.61353107 -0.04767724 C99.0697797 -0.04888904 101.52602832 -0.05010318 103.98227695 -0.05131962 C127.00057184 -0.06218799 150.01885207 -0.06003606 173.03714779 -0.05393478 C194.07339882 -0.04876689 215.10960352 -0.06001896 236.14584538 -0.07903299 C257.7691307 -0.09842713 279.39239411 -0.10666459 301.01568818 -0.10290974 C313.14615291 -0.10100001 325.27657822 -0.103463 337.40703583 -0.11762428 C347.73452124 -0.12955916 358.06194298 -0.13091939 368.3894293 -0.11883412 C373.65330972 -0.1129601 378.91707379 -0.111805 384.18094635 -0.12383652 C389.00976162 -0.13474488 393.83836408 -0.13153349 398.6671696 -0.11757483 C400.40394943 -0.11494147 402.1407462 -0.11725111 403.87750933 -0.1253107 C418.1398129 -0.18684518 432.2231437 1.11664081 445.7979126 5.82319641 C446.52784424 6.07295227 447.25777588 6.32270813 448.00982666 6.58003235 C475.00546491 16.28284576 500.37937601 35.29664526 514.9229126 60.26069641 C515.32945068 60.95743469 515.73598877 61.65417297 516.15484619 62.37202454 C530.57334256 87.43926515 535.0864731 112.56509701 535.05662537 141.25534058 C535.05849612 142.96792317 535.06079787 144.68050535 535.06349069 146.39308685 C535.06958257 151.07654256 535.06947818 155.75998036 535.06829631 160.44343913 C535.06809164 165.5036265 535.07361744 170.56380821 535.07835388 175.62399292 C535.08664692 185.52997499 535.08940812 195.43595111 535.08996626 205.34193636 C535.09044211 213.39834761 535.0925003 221.4547569 535.09566689 229.51116753 C535.10447019 252.37540877 535.10908683 275.23964533 535.10833641 298.10388828 C535.10827648 299.95135083 535.10827648 299.95135083 535.10821533 301.83613586 C535.10815401 303.68586633 535.10815401 303.68586633 535.10809145 305.57296508 C535.10768519 325.54814696 535.11725058 345.52330998 535.1313537 365.49848641 C535.14573555 386.03124823 535.15262287 406.56400086 535.15175992 427.09676784 C535.15142855 438.61527646 535.15414923 450.1337653 535.16493797 461.65226936 C535.17406685 471.46117166 535.17619871 481.27004522 535.16942855 491.07894994 C535.16617523 496.07760917 535.16606345 501.07621334 535.1747818 506.07486725 C535.18270069 510.66260218 535.18116098 515.25023887 535.17249767 519.83797156 C535.17097444 521.48600101 535.17273367 523.13403799 535.17835774 524.78205854 C535.22422519 539.19224943 534.65603074 553.93562773 530.7354126 567.88569641 C530.52328125 568.66364563 530.3111499 569.44159485 530.09259033 570.24311829 C527.8000088 578.27327917 524.57230098 585.76465542 520.9229126 593.26069641 C520.47431885 594.20944641 520.0257251 595.15819641 519.5635376 596.13569641 C509.64968813 615.73012831 492.89086897 634.19521575 473.9229126 645.26069641 C473.22327393 645.67013489 472.52363525 646.07957336 471.80279541 646.50141907 C463.43458594 651.31322918 454.94427998 655.57462757 445.7979126 658.69819641 C445.15571777 658.92080139 444.51352295 659.14340637 443.85186768 659.37275696 C429.93774017 663.78538232 415.86186366 664.70374304 401.38499451 664.64837646 C399.57791052 664.65255999 397.77082915 664.65804303 395.96375257 664.66469628 C391.04683106 664.67903611 386.1300788 664.67494239 381.21314847 664.66752946 C375.89125432 664.66277145 370.56939542 664.6753308 365.24751282 664.68554688 C354.84034402 664.70268895 344.43323573 664.70358443 334.02605649 664.69833397 C325.56171509 664.69428241 317.09739148 664.69574752 308.63305092 664.70108223 C306.82175526 664.70220486 306.82175526 664.70220486 304.97386778 664.70335018 C302.52028248 664.70488175 300.06669718 664.7064201 297.61311189 664.70796514 C274.6357142 664.72167361 251.65835062 664.71626416 228.68095372 664.70477993 C207.69223394 664.69484964 186.70360234 664.70778767 165.71489616 664.73171412 C144.12649533 664.75613744 122.53813552 664.76570503 100.94972116 664.7590614 C88.84436084 664.75557632 76.73906831 664.75775415 64.63371849 664.77531242 C54.32872218 664.79007488 44.02384138 664.79061714 33.71884724 664.77324151 C28.46871323 664.76476235 23.21878522 664.76250609 17.96866226 664.77789307 C13.14904191 664.79184263 8.32980207 664.78684673 3.51020316 664.76765383 C1.78021992 664.76392473 0.05020544 664.76672491 -1.6797497 664.77726548 C-32.43289008 664.95110291 -63.98139579 655.17427558 -87.0770874 634.26069641 C-88.0663623 633.3678595 -88.0663623 633.3678595 -89.07562256 632.45698547 C-112.37113873 611.07493491 -128.40169216 582.98095538 -132.0770874 551.26069641 C-132.15930505 550.56384564 -132.24152269 549.86699487 -132.32623178 549.14902741 C-133.23321998 540.5227193 -133.21981046 531.92691996 -133.21080017 523.26605225 C-133.21267092 521.55346965 -133.21497267 519.84088748 -133.21766549 518.12830597 C-133.22375738 513.44485026 -133.22365299 508.76141246 -133.22247112 504.0779537 C-133.22226645 499.01776633 -133.22779224 493.95758461 -133.23252869 488.8973999 C-133.24082173 478.99141783 -133.24358293 469.08544172 -133.24414106 459.17945646 C-133.24461691 451.12304522 -133.2466751 443.06663593 -133.24984169 435.0102253 C-133.258645 412.14598405 -133.26326163 389.28174749 -133.26251122 366.41750454 C-133.26247126 365.18586284 -133.2624313 363.95422114 -133.26239014 362.68525696 C-133.26234926 361.45210332 -133.26230838 360.21894968 -133.26226626 358.94842774 C-133.26185999 338.97324586 -133.27142538 318.99808284 -133.2855285 299.02290642 C-133.29991036 278.49014459 -133.30679768 257.95739196 -133.30593473 237.42462498 C-133.30560336 225.90611636 -133.30832403 214.38762752 -133.31911278 202.86912346 C-133.32824165 193.06022116 -133.33037351 183.2513476 -133.32360335 173.44244289 C-133.32035003 168.44378365 -133.32023825 163.44517949 -133.3289566 158.44652557 C-133.3368755 153.85879065 -133.33533579 149.27115395 -133.32667247 144.68342126 C-133.32514924 143.03539181 -133.32690848 141.38735483 -133.33253255 139.73933428 C-133.37839667 125.33018836 -132.8123761 110.58429012 -128.8895874 96.63569641 C-128.67528076 95.8541217 -128.46097412 95.072547 -128.24017334 94.26728821 C-122.97863527 75.90958095 -113.71083287 58.55172027 -101.0770874 44.26069641 C-100.54341553 43.60714172 -100.00974365 42.95358704 -99.4598999 42.28022766 C-75.405767 12.83016765 -36.71865936 -0.08779206 0 0 Z " fill="#11233E" transform="translate(299.07708740234375,167.7393035888672)"/>
<path d="M0 0 C12.71928081 8.09408779 12.71928081 8.09408779 18.6953125 12.07421875 C19.70155922 12.74302315 19.70155922 12.74302315 20.72813416 13.42533875 C22.86148633 14.8444697 24.9934123 16.26572034 27.125 17.6875 C27.85943329 18.17688049 28.59386658 18.66626099 29.35055542 19.17047119 C37.97711348 24.92182317 46.55799779 30.71643691 54.98779297 36.75390625 C61.47514405 41.38282494 68.11432765 45.77543656 74.75463867 50.1809082 C84.16090363 56.42643668 93.52220469 62.73722631 102.875 69.0625 C103.65820618 69.59213348 104.44141235 70.12176697 105.24835205 70.66744995 C109.24211512 73.36840318 113.23544632 76.0699939 117.22851562 78.77197266 C121.90631133 81.93705845 126.58584878 85.09956233 131.265625 88.26171875 C145.87231717 98.13301619 160.47136849 108.01396172 175 118 C171.79346508 121.48346519 168.18705241 124.02404361 164.23828125 126.58203125 C162.88458417 127.47164441 161.53124238 128.36179839 160.17822266 129.25244141 C159.48472717 129.70733948 158.79123169 130.16223755 158.07672119 130.63092041 C154.7969843 132.79308876 151.54466569 134.99519453 148.29296875 137.19921875 C147.64391068 137.63850708 146.9948526 138.07779541 146.3261261 138.53039551 C144.27958884 139.91561238 142.23354801 141.30156061 140.1875 142.6875 C138.70422136 143.69162576 137.22090335 144.69569337 135.73754883 145.69970703 C132.67253304 147.77434686 129.60768237 149.84923023 126.54296875 151.92431641 C119.42575902 156.74310255 112.30664523 161.559074 105.1875 166.375 C104.49280609 166.84497406 103.79811218 167.31494812 103.08236694 167.79916382 C92.66886384 174.84403836 82.2524881 181.88465187 71.83447266 188.92285156 C66.43064691 192.57362695 61.02709726 196.22481098 55.62353516 199.87597656 C52.52175242 201.97183557 49.41984877 204.06751547 46.31787109 206.16308594 C42.49795167 208.7437626 38.67850936 211.3251441 34.859375 213.90698242 C33.44627948 214.86212444 32.03303848 215.81705128 30.61962891 216.77172852 C28.64574702 218.10502352 26.67234201 219.4390201 24.69921875 220.7734375 C23.76062515 221.40792816 23.76062515 221.40792816 22.80307007 222.05523682 C19.35761872 224.38867064 15.92452411 226.73885383 12.50244141 229.10644531 C11.76355179 229.61720612 11.02466217 230.12796692 10.26338196 230.65420532 C8.83350857 231.64391532 7.40505841 232.63568539 5.97819519 233.62973022 C1.10995511 237 1.10995511 237 0 237 C0 207.96 0 178.92 0 149 C-33.99 149 -67.98 149 -103 149 C-103 128.87 -103 108.74 -103 88 C-69.01 88 -35.02 88 0 88 C0 58.96 0 29.92 0 0 Z " fill="#CDFEF8" transform="translate(426,537)"/>
<path d="M0 0 C12.71928081 8.09408779 12.71928081 8.09408779 18.6953125 12.07421875 C19.70155922 12.74302315 19.70155922 12.74302315 20.72813416 13.42533875 C22.86148633 14.8444697 24.9934123 16.26572034 27.125 17.6875 C27.85943329 18.17688049 28.59386658 18.66626099 29.35055542 19.17047119 C37.97711348 24.92182317 46.55799779 30.71643691 54.98779297 36.75390625 C61.47514405 41.38282494 68.11432765 45.77543656 74.75463867 50.1809082 C84.16090363 56.42643668 93.52220469 62.73722631 102.875 69.0625 C103.65820618 69.59213348 104.44141235 70.12176697 105.24835205 70.66744995 C109.24211512 73.36840318 113.23544632 76.0699939 117.22851562 78.77197266 C121.90631133 81.93705845 126.58584878 85.09956233 131.265625 88.26171875 C145.87231717 98.13301619 160.47136849 108.01396172 175 118 C171.79346508 121.48346519 168.18705241 124.02404361 164.23828125 126.58203125 C162.88458417 127.47164441 161.53124238 128.36179839 160.17822266 129.25244141 C159.48472717 129.70733948 158.79123169 130.16223755 158.07672119 130.63092041 C154.7969843 132.79308876 151.54466569 134.99519453 148.29296875 137.19921875 C147.64391068 137.63850708 146.9948526 138.07779541 146.3261261 138.53039551 C144.27958884 139.91561238 142.23354801 141.30156061 140.1875 142.6875 C138.70422136 143.69162576 137.22090335 144.69569337 135.73754883 145.69970703 C132.67253304 147.77434686 129.60768237 149.84923023 126.54296875 151.92431641 C119.42575902 156.74310255 112.30664523 161.559074 105.1875 166.375 C104.49280609 166.84497406 103.79811218 167.31494812 103.08236694 167.79916382 C92.66886384 174.84403836 82.2524881 181.88465187 71.83447266 188.92285156 C66.43064691 192.57362695 61.02709726 196.22481098 55.62353516 199.87597656 C52.52175242 201.97183557 49.41984877 204.06751547 46.31787109 206.16308594 C42.49795167 208.7437626 38.67850936 211.3251441 34.859375 213.90698242 C33.44627948 214.86212444 32.03303848 215.81705128 30.61962891 216.77172852 C28.64574702 218.10502352 26.67234201 219.4390201 24.69921875 220.7734375 C23.76062515 221.40792816 23.76062515 221.40792816 22.80307007 222.05523682 C19.35761872 224.38867064 15.92452411 226.73885383 12.50244141 229.10644531 C11.76355179 229.61720612 11.02466217 230.12796692 10.26338196 230.65420532 C8.83350857 231.64391532 7.40505841 232.63568539 5.97819519 233.62973022 C1.10995511 237 1.10995511 237 0 237 C0 207.96 0 178.92 0 149 C-33.99 149 -67.98 149 -103 149 C-103 128.87 -103 108.74 -103 88 C-69.01 88 -35.02 88 0 88 C0 58.96 0 29.92 0 0 Z " fill="#CDFEF8" transform="translate(426,226)"/>
<path d="M0 0 C0 18.81 0 37.62 0 57 C11.55 57 23.1 57 35 57 C35 70.86 35 84.72 35 99 C23.45 99 11.9 99 0 99 C0 117.81 0 136.62 0 156 C-3.91062439 154.43575024 -6.65306938 153.05923259 -10.0703125 150.76171875 C-11.52219971 149.78996704 -11.52219971 149.78996704 -13.00341797 148.79858398 C-14.54860107 147.75359741 -14.54860107 147.75359741 -16.125 146.6875 C-17.20539551 145.96183838 -18.28579102 145.23617676 -19.39892578 144.48852539 C-26.32441655 139.82940071 -33.22380873 135.13255099 -40.10375977 130.40649414 C-48.06445015 124.94151728 -56.06300063 119.53291973 -64.0625 114.125 C-64.7781311 113.64117859 -65.49376221 113.15735718 -66.2310791 112.65887451 C-69.1826263 110.66349374 -72.13427602 108.66826478 -75.08609009 106.67327881 C-83.0032259 101.322475 -90.91790611 95.96804324 -98.83248901 90.61346436 C-102.47417724 88.14973412 -106.11599809 85.68619995 -109.7578125 83.22265625 C-110.978028 82.39721777 -112.19824292 81.57177843 -113.41845703 80.74633789 C-114.27036621 80.17004639 -115.12227539 79.59375488 -116 79 C-114.6810403 75.04312091 -112.23153542 73.86603014 -108.87890625 71.703125 C-107.92183777 71.07142143 -107.92183777 71.07142143 -106.94543457 70.42695618 C-105.5553033 69.51061874 -104.16274447 68.59795608 -102.76809692 67.68850708 C-99.76111583 65.72733115 -96.76602604 63.74832524 -93.77012634 61.77027893 C-92.20191785 60.73507524 -90.6331108 59.70077779 -89.06373596 58.66734314 C-81.0177707 53.36603802 -73.03635769 47.97140728 -65.0625 42.5625 C-63.66079126 41.61277789 -62.25901696 40.66315254 -60.85717773 39.71362305 C-58.0253623 37.79528064 -55.19393006 35.87637462 -52.36279297 33.95703125 C-45.52465632 29.32160915 -38.68292902 24.69149246 -31.84078979 20.0619812 C-29.69834448 18.61213407 -27.55629863 17.16169839 -25.41430664 15.71118164 C-22.21094975 13.54224886 -19.00448474 11.37796659 -15.79699707 9.21514893 C-14.00545337 8.00368763 -12.21876326 6.78531924 -10.43261719 5.56591797 C-9.34883789 4.83131348 -8.26505859 4.09670898 -7.1484375 3.33984375 C-6.19888184 2.69265381 -5.24932617 2.04546387 -4.27099609 1.37866211 C-2 0 -2 0 0 0 Z " fill="#CDFDF8" transform="translate(642,422)"/>
</svg>
